<?xml version="1.0" encoding="utf-8"?>
<!-- Generator: Adobe Illustrator 19.0.0, SVG Export Plug-In . SVG Version: 6.00 Build 0)  -->
<svg version="1.1" id="Layer_1" xmlns="http://www.w3.org/2000/svg" xmlns:xlink="http://www.w3.org/1999/xlink" x="0px" y="0px"
	 viewBox="0 0 633.5 514.4" style="enable-background:new 0 0 633.5 514.4;" xml:space="preserve">
<style type="text/css">
	.st0{fill:#FF5F00;}
	.st1{fill:#EB001B;}
	.st2{fill:#F79E1B;}
</style>
<g>
	<g>
		<path id="XMLID_390_" d="M112.4,496.3v-31.5c0-11.9-7.6-19.8-19.7-19.9c-6.4-0.1-13,1.9-17.6,8.9c-3.5-5.6-8.9-8.9-16.6-8.9
			c-5.4,0-10.6,1.6-14.7,7.5v-6.2H32.8v50.2h11v-27.8c0-8.7,4.8-13.3,12.3-13.3c7.2,0,10.9,4.7,10.9,13.2v27.9h11v-27.8
			c0-8.7,5-13.3,12.3-13.3c7.5,0,11,4.7,11,13.2v27.9H112.4z M275.4,446.2h-17.8v-15.2h-11v15.2h-10.2v10h10.2V479
			c0,11.6,4.5,18.6,17.4,18.6c4.7,0,10.2-1.5,13.6-3.9l-3.1-9.3c-3.3,1.9-6.8,2.8-9.7,2.8c-5.5,0-7.2-3.4-7.2-8.4v-22.7h17.8V446.2z
			 M368.5,444.9c-6.3,0-10.4,2.9-13.2,7.3v-6.1h-10.8v50.2h10.9v-28.1c0-8.3,3.6-12.9,10.7-12.9c2.2,0,4.5,0.3,6.8,1.3l3.4-10.3
			C373.8,445.3,370.7,444.9,368.5,444.9L368.5,444.9z M227.8,450.1c-5.2-3.5-12.5-5.2-20.5-5.2c-12.7,0-20.9,6.1-20.9,16.1
			c0,8.2,6.1,13.2,17.3,14.8l5.1,0.7c6,0.8,8.8,2.4,8.8,5.2c0,3.9-4,6.1-11.4,6.1c-7.6,0-13-2.4-16.7-5.2l-5.1,8.5
			c6,4.4,13.5,6.5,21.7,6.5c14.5,0,22.9-6.8,22.9-16.4c0-8.8-6.6-13.4-17.5-15l-5.1-0.7c-4.7-0.6-8.5-1.6-8.5-4.9
			c0-3.7,3.6-5.9,9.5-5.9c6.4,0,12.6,2.4,15.6,4.3L227.8,450.1z M309.4,444.9c-14.7,0-25,10.7-25,26.3c0,15.9,10.7,26.3,25.7,26.3
			c7.6,0,14.5-1.9,20.6-7l-5.4-8.1c-4.2,3.4-9.5,5.2-14.6,5.2c-7,0-13.4-3.3-15-12.3H333c0.1-1.4,0.2-2.7,0.2-4.2
			C333.1,455.6,323.5,444.9,309.4,444.9L309.4,444.9z M309.2,454.7c7,0,11.5,4.4,12.7,12.2h-26C297,459.6,301.4,454.7,309.2,454.7
			L309.2,454.7z M173.8,471.2v-25.1h-10.9v6.1c-3.5-4.5-8.7-7.3-15.8-7.3c-14.1,0-25.1,11-25.1,26.3c0,15.3,11,26.3,25.1,26.3
			c7.1,0,12.4-2.8,15.8-7.3v6.1h10.9V471.2z M133.2,471.2c0-8.8,5.8-16.1,15.2-16.1c9,0,15.1,6.9,15.1,16.1
			c0,9.1-6.1,16.1-15.1,16.1C139,487.3,133.2,480,133.2,471.2L133.2,471.2z M497,471.2v-25.1h-10.9v6.1c-3.5-4.5-8.7-7.3-15.8-7.3
			c-14.1,0-25.1,11-25.1,26.3c0,15.3,11,26.3,25.1,26.3c7.1,0,12.4-2.8,15.8-7.3v6.1H497V471.2z M456.4,471.2
			c0-8.8,5.8-16.1,15.2-16.1c9,0,15.1,6.9,15.1,16.1c0,9.1-6.1,16.1-15.1,16.1C462.2,487.3,456.4,480,456.4,471.2L456.4,471.2z
			 M385.4,471.1v43.2h10.9v-24.2c3.5,4.5,8.7,7.3,15.8,7.3c14.1,0,25.1-11,25.1-26.3c0-15.3-11-26.3-25.1-26.3
			c-7.1,0-12.4,2.8-15.8,7.3v-6.1h-10.9V471.1z M426,471.1c0,8.8-5.8,16.1-15.2,16.1c-9,0-15.1-6.9-15.1-16.1
			c0-9.1,6.1-16.1,15.1-16.1C420.2,455.1,426,462.3,426,471.1L426,471.1z M551,450.3c-5.2-3.5-12.5-5.2-20.5-5.2
			c-12.7,0-20.9,6.1-20.9,16.1c0,8.2,6.1,13.2,17.3,14.8l5.1,0.7c6,0.8,8.8,2.4,8.8,5.2c0,3.9-4,6.1-11.4,6.1
			c-7.6,0-13-2.4-16.7-5.2l-5.1,8.5c6,4.4,13.5,6.5,21.7,6.5c14.5,0,22.9-6.8,22.9-16.4c0-8.8-6.6-13.4-17.5-15l-5.1-0.7
			c-4.7-0.6-8.5-1.6-8.5-4.9c0-3.7,3.6-5.9,9.5-5.9c6.4,0,12.6,2.4,15.6,4.3L551,450.3z M603.3,450.3c-5.2-3.5-12.5-5.2-20.5-5.2
			c-12.7,0-20.9,6.1-20.9,16.1c0,8.2,6.1,13.2,17.3,14.8l5.1,0.7c6,0.8,8.8,2.4,8.8,5.2c0,3.9-4,6.1-11.4,6.1
			c-7.6,0-13-2.4-16.7-5.2l-5.1,8.5c6,4.4,13.5,6.5,21.7,6.5c14.5,0,22.9-6.8,22.9-16.4c0-8.8-6.6-13.4-17.5-15l-5.1-0.7
			c-4.7-0.6-8.5-1.6-8.5-4.9c0-3.7,3.6-5.9,9.5-5.9c6.4,0,12.6,2.4,15.6,4.3L603.3,450.3z M613.5,496.4v-6.3h-2.5v-1.3h6.5v1.3h-2.5
			v6.3H613.5z M627.4,496.4v-7.6h-2l-2.3,5.2l-2.3-5.2h-2v7.6h1.4v-5.7l2.1,4.9h1.5l2.1-5v5.7H627.4z"/>
		<g id="XMLID_1_">
			<rect x="231.1" y="48.2" class="st0" width="171.3" height="307.9"/>
			<path id="XMLID_5_" class="st1" d="M242,202.1c0-62.5,29.2-118.1,74.8-153.9C283.5,22,241.4,6.3,195.8,6.3C87.7,6.3,0,94,0,202.1
				c0,108.1,87.7,195.8,195.8,195.8c45.7,0,87.7-15.6,121-41.9C271.2,320.2,242,264.6,242,202.1z"/>
			<path class="st2" d="M633.5,202.4c0,108.1-87.7,195.8-195.8,195.8c-45.7,0-87.7-15.6-121-41.9c45.5-35.9,74.8-91.5,74.8-153.9
				S362.3,84.3,316.8,48.5c33.3-26.2,75.3-41.9,121-41.9C545.9,6.6,633.5,94.3,633.5,202.4z M614.9,323.7v-6.3h2.5v-1.3h-6.5v1.3
				h2.5v6.3H614.9z M627.4,323.7v-7.6h-2l-2.3,5.2l-2.3-5.2h-2v7.6h1.4V318l2.1,4.9h1.5l2.1-5v5.7H627.4z"/>
		</g>
	</g>
</g>
</svg>
