<?xml version="1.0" encoding="utf-8"?>
<!-- Generator: Adobe Illustrator 23.0.1, SVG Export Plug-In . SVG Version: 6.00 Build 0)  -->
<svg version="1.1" id="Layer_1" xmlns="http://www.w3.org/2000/svg" xmlns:xlink="http://www.w3.org/1999/xlink" x="0px" y="0px"
	 viewBox="0 0 109.9 115.9" style="enable-background:new 0 0 109.9 115.9;" xml:space="preserve">
<style type="text/css">
	.st0{fill:#181C1D;}
	.st1{fill:#72B443;}
</style>
<polygon class="st0" points="10.2,90.6 45.6,90.6 45.6,55.2 10.2,55.2 "/>
<polygon class="st1" points="4.2,112 0,112 0,97.3 14.9,97.3 14.9,112 10.8,112 10.8,100.2 4.2,100.2 "/>
<path class="st1" d="M20.6,106.7c0-3,1.8-3.6,3-3.6c1.1,0,3,0.6,3,3.6c0,1.8-0.8,3.6-3,3.6C21.3,110.3,20.6,108.5,20.6,106.7
	L20.6,106.7z M16.9,101.4L16.9,101.4v14.5h3.8v-5c1.3,1.4,3.4,1.5,3.9,1.5c3.6,0,5.9-2.3,5.9-5.7c0-3.5-2.2-5.7-5.8-5.7
	c-0.9,0-2.7,0.1-4.1,1.7h-0.1v-1.3H16.9L16.9,101.4z"/>
<path class="st1" d="M40,110.7c-1.4,1.3-2.8,1.7-4.3,1.7c-4.1,0-4.3-3.1-4.3-4.4v-6.7h3.8v6.2c0,2.1,0.7,2.7,2.1,2.7
	c2.4,0,2.6-2.2,2.6-2.9v-6h3.8v10.6h-3.8v-1.2H40z"/>
<path class="st1" d="M49.3,103.5h2.1c1.1,0,2,0.2,2,1c0,1-1.5,1-2.1,1h-2V103.5L49.3,103.5z M45.5,101.4L45.5,101.4V112h7.6
	c2.8,0,4.7-0.5,4.7-2.7c0-1.7-0.9-2.4-3-2.8v-0.1c1.4-0.2,2.6-1,2.6-2.5c0-2.6-3-2.6-4.2-2.6h-7.7V101.4z M49.3,107.5L49.3,107.5
	h2.3c1.8,0,2.2,0.5,2.2,1.3c0,0.5-0.2,1.1-2.1,1.1h-2.4V107.5L49.3,107.5z"/>
<path class="st1" d="M67,107.6c0,2.1-1.9,2.7-2.8,2.7c-0.7,0-2-0.2-2-1.2c0-1.2,1.4-1.4,2.2-1.5c1.5-0.2,1.4-0.1,2.5-0.6v0.6H67z
	 M62.6,104.8L62.6,104.8c0-1.6,1.7-1.7,2.3-1.7c0.4,0,2,0,2.1,1.4c0,0.1,0,0.2,0,0.3c-0.1,1-1.1,0.8-3.9,1.2
	c-2.3,0.3-4.8,0.9-4.8,3.3c0,0.9,0.4,3.1,4.4,3.1c1.6,0,3.3-0.4,4.3-1.4h0.1l0.3,1h4v-0.2c-0.7-0.1-0.8-0.9-0.8-2l0.1-4.9
	c0-1.2-0.1-4-5.9-4c-1.4,0-5.8,0.1-6,3.8L62.6,104.8L62.6,104.8z"/>
<polygon class="st1" points="71.2,103.5 71.2,101.4 83.5,101.4 83.5,103.5 79.2,103.5 79.2,112 75.4,112 75.4,103.5 "/>
<path class="st1" d="M10.2,0v44.1h9.4c24.7,0,37.2,12.5,37.2,37.2v9.4h44.1V0H10.2L10.2,0z M82.1,18.7L82.1,18.7c0,12,0,41.1,0,53.2
	c-3.4,0-4,0-7.2,0C71.8,45.6,55.3,29.1,29,26c0-3.3,0-3.9,0-7.2C41,18.7,70.1,18.7,82.1,18.7L82.1,18.7z"/>
<g>
	<path d="M96.2,108.7v3H84.8c0.1-1.1,0.5-2.2,1.1-3.2s1.8-2.4,3.6-4.1c1.5-1.4,2.4-2.3,2.7-2.8c0.4-0.7,0.7-1.3,0.7-2
		s-0.2-1.3-0.6-1.7c-0.4-0.4-0.9-0.6-1.6-0.6c-0.7,0-1.2,0.2-1.6,0.6c-0.4,0.4-0.6,1.1-0.7,2l-3.2-0.3c0.2-1.8,0.8-3.1,1.8-3.8
		c1-0.8,2.3-1.2,3.8-1.2c1.7,0,3,0.4,3.9,1.3c1,0.9,1.4,2,1.4,3.4c0,0.8-0.1,1.5-0.4,2.2c-0.3,0.7-0.7,1.4-1.3,2.2
		c-0.4,0.5-1.1,1.2-2.1,2.2c-1,0.9-1.7,1.6-1.9,1.9c-0.3,0.3-0.5,0.6-0.7,0.9L96.2,108.7L96.2,108.7z"/>
	<path d="M104.7,111.7v-3.4h-6.9v-2.8l7.3-10.7h2.7v10.7h2.1v2.8h-2.1v3.4H104.7z M104.7,105.5v-5.8l-3.9,5.8H104.7z"/>
</g>
</svg>
