<?xml version="1.0" encoding="utf-8"?>
<!-- Generator: Adobe Illustrator 19.1.0, SVG Export Plug-In . SVG Version: 6.00 Build 0)  -->
<svg version="1.1" id="Layer_1" xmlns="http://www.w3.org/2000/svg" xmlns:xlink="http://www.w3.org/1999/xlink" x="0px" y="0px"
	 viewBox="0 0 1000 1000" style="enable-background:new 0 0 1000 1000;" xml:space="preserve">
<style type="text/css">
	.st0{fill:#161E6F;}
</style>
<g>
	<g>
		<path class="st0" d="M161.3,416l-33.6,68.5c-7.3,15-14.4,29.5-20,44.5h-0.4c-0.9-15-2-29.3-3.6-44.5l-3.5-35.9L97,416h-3.6H63.5
			l0,0H19.7H18v5h2.7c36.6,2,45.9,23.3,48.3,34.2L64.6,421h0l4.6,35.2c-0.1-0.3-0.1-0.7-0.2-1l0.8,6.4c0,0,0-0.2,0-0.8L82.6,560
			h37.1l77.3-144H161.3z M64,416.7"/>
		<path class="st0" d="M247,415.5l-28.4,144.1h-32L215,415.5H247z"/>
		<path class="st0" d="M249.2,526.3c8.9,5.1,21.6,9.2,35.3,9.2c12.4,0,23.8-5.6,23.8-16.9c0-8.1-6.4-13.5-20.2-20.3
			c-16-8.3-31.1-19.4-31.1-38.3c0-29.1,26.4-46.8,59.1-46.8c18.2,0,28.9,3.8,35.3,7.3l-14.3,25.6c-4.9-2.6-8.7-7.7-23.7-7.5
			c-14.9,0.2-22.7,8.3-22.7,16.2c0,8.3,9.1,13.5,21.8,20.3c18.2,9.2,29.8,20.9,29.8,38c0,32.1-27.6,48.5-60.9,48.5
			c-20.9,0-37.9-8.3-45-13.5L249.2,526.3z"/>
		<path class="st0" d="M388.7,522.2l-17.8,37.4h-34l72.9-144.1h41.1l17.6,144.1h-33.6l-3.1-37.4H388.7z M430.5,498.7l-2.9-31
			c-0.7-7.9-1.6-19.4-2.2-28.2h-0.4c-3.8,8.8-8,19.9-12,28.2l-14.9,31H430.5z"/>
	</g>
	<g>
		<path class="st0" d="M517.4,563.1c-9.7,0-17.1-2.4-22.4-7.1c-5.3-4.8-7.9-11.6-7.9-20.4c0-7,1.2-13.4,3.5-19.1
			c2.3-5.7,5.5-10.6,9.6-14.8c4-4,8.7-7.2,14.3-9.5c5.6-2.3,11.4-3.4,17.5-3.4c4.9,0,9.5,0.5,13.7,1.5c4.2,1,8,2.5,11.4,4.4
			l-4.2,17.3h-2.1c-3-3.3-6.1-5.7-9.1-7.2c-3-1.5-6.6-2.3-10.6-2.3c-7.1,0-13,2.9-17.7,8.6c-4.6,5.7-6.9,13-6.9,21.9
			c0,5.7,1.3,9.8,3.8,12.4c2.6,2.6,6.3,3.8,11.2,3.8c4.4,0,8.6-0.9,12.4-2.7c3.9-1.8,7.5-4,11-6.8h1.9l-4.2,17.1
			c-1.4,0.6-3.1,1.3-5,2.1c-1.9,0.8-3.8,1.5-5.5,2c-2.3,0.7-4.5,1.2-6.5,1.5C523.8,563,521,563.1,517.4,563.1z"/>
		<path class="st0" d="M615.4,520c0,0.8-0.1,1.8-0.2,3c-0.1,1.2-0.3,2.4-0.6,3.7l-8.1,35.1H589l6.2-26.8c0.4-2,0.8-3.8,1.1-5.2
			c0.3-1.4,0.4-2.7,0.4-3.8c0-2.1-0.5-3.7-1.6-4.6c-1.1-0.9-3-1.4-5.8-1.4c-1.4,0-3,0.3-4.8,0.9c-1.8,0.6-3.8,1.5-6,2.7l-8.8,38.3
			h-17.4l17.2-74.8h17.4l-6.2,26.8c3.5-2.3,6.8-4.2,9.7-5.5s6.2-2,9.7-2c4.9,0,8.7,1.2,11.3,3.6C614.1,512.2,615.4,515.6,615.4,520z
			"/>
		<path class="st0" d="M650.3,563.2c-9.2,0-16.3-2-21.3-6.1c-5-4.1-7.5-9.7-7.5-16.9c0-4.9,0.8-9.4,2.5-13.5c1.6-4.1,4-7.7,7.1-10.8
			c2.9-3,6.6-5.4,11.1-7.2c4.4-1.8,9.3-2.6,14.6-2.6c8,0,14.1,1.6,18.2,4.9s6.1,8.1,6.1,14.4c0,2.2-0.2,4.3-0.7,6.4s-1,4.2-1.7,6.2
			h-40.2c0,0.2,0,0.4,0,0.6c0,0.2,0,0.4,0,0.6c0,3.7,1.3,6.7,4,8.8c2.6,2.1,6.7,3.2,12.1,3.2c3.8,0,7.4-0.6,10.8-1.9
			c3.4-1.3,6.3-2.7,8.8-4.3h1.9l-3.2,13.9c-3.4,1.5-6.9,2.6-10.6,3.3C658.4,562.9,654.5,563.2,650.3,563.2z M663.5,527.9
			c0.1-0.6,0.2-1.1,0.2-1.6c0-0.5,0.1-1,0.1-1.5c0-2.5-0.8-4.5-2.4-5.8c-1.6-1.4-3.8-2-6.8-2c-3.6,0-6.6,1-9,2.9
			c-2.4,1.9-4.3,4.6-5.5,8.1H663.5z"/>
		<path class="st0" d="M710.6,563.2c-3.7,0-7.1-0.5-10.4-1.4s-6-2.3-8.4-4.3c-2.3-1.9-4.2-4.3-5.5-7.1s-2-6.2-2-9.9
			c0-4.8,0.9-9.3,2.8-13.5c1.8-4.2,4.4-7.8,7.8-10.9c3.3-3,7.3-5.5,12-7.2c4.7-1.8,9.8-2.7,15.3-2.7c3.3,0,6.6,0.4,9.8,1.1
			c3.3,0.7,6.3,1.8,9.1,3.2l-3.7,14.8h-2.5c-1.9-2.3-4-4-6.4-5.1s-5.1-1.7-8-1.7c-5.4,0-9.8,1.9-13.1,5.8c-3.3,3.9-5,8.7-5,14.5
			c0,4,1,7,3.1,9c2,2,5.2,3,9.5,3c3.3,0,6.4-0.7,9.1-2c2.7-1.4,5.1-2.9,7-4.5h2.5l-3.7,14.8c-3.5,1.5-6.5,2.6-9.1,3.2
			C718.2,562.9,714.8,563.2,710.6,563.2z"/>
		<path class="st0" d="M796.1,561.7h-18.2l-10.7-23.8l-7.6,6.8l-4,17.1h-17.4l17.2-74.8h17.4l-10.3,44.6l24.2-23.8h19.9l-25,23.5
			L796.1,561.7z"/>
		<path class="st0" d="M864,527.5c0,5.1-0.8,9.8-2.5,14.2c-1.7,4.4-4.1,8.2-7.2,11.4c-3.2,3.3-6.9,5.8-11.1,7.6
			c-4.2,1.8-9.2,2.7-14.8,2.7c-8,0-14.2-1.9-18.5-5.8c-4.3-3.8-6.4-9.2-6.4-16c0-4.8,0.8-9.4,2.4-13.7c1.6-4.3,4-8.1,7.1-11.4
			c3-3.2,6.8-5.8,11.2-7.7s9.4-2.8,14.9-2.8c8.1,0,14.2,1.9,18.5,5.7C861.8,515.6,864,520.8,864,527.5z M841.5,545.2
			c1.5-2.2,2.6-4.7,3.3-7.4c0.8-2.7,1.1-5.9,1.1-9.7c0-3.3-0.7-5.8-2.2-7.6c-1.4-1.8-3.7-2.7-6.9-2.7c-2.4,0-4.6,0.6-6.4,1.8
			c-1.8,1.2-3.5,2.9-4.9,5c-1.3,2-2.3,4.5-3.1,7.5c-0.8,3-1.1,6-1.1,9.2c0,3.7,0.8,6.3,2.5,7.9s3.9,2.4,6.7,2.4c2.1,0,4.1-0.6,6-1.7
			C838.5,548.8,840.1,547.2,841.5,545.2z"/>
		<path class="st0" d="M933.1,507.8l-12.5,54h-17.4l1.4-6c-1.7,1.1-3.4,2.2-5.1,3.1c-1.6,1-3.2,1.8-4.7,2.3
			c-1.9,0.8-3.6,1.3-5.1,1.6s-3.1,0.4-4.6,0.4c-4.7,0-8.5-1.1-11.2-3.4c-2.7-2.3-4.1-5.6-4.1-10.1c0-1.2,0.1-2.3,0.2-3.4
			c0.1-1,0.3-2.2,0.6-3.4l8.1-35.1h17.5l-6.2,26.8c-0.5,2.1-0.8,3.8-1.1,5.3c-0.2,1.5-0.4,2.7-0.4,3.8c0,2.1,0.5,3.6,1.5,4.6
			c1,0.9,3,1.4,5.8,1.4c1.4,0,3-0.3,4.9-0.9c1.8-0.6,3.8-1.5,6-2.6l8.8-38.3H933.1z"/>
		<path class="st0" d="M955.1,562.8c-6,0-10.3-1-12.8-3c-2.6-2-3.8-4.9-3.8-8.8c0-1,0.1-2,0.2-3c0.2-1,0.4-2.1,0.6-3.4l5.9-25.6
			h-7.1l2.6-11.4h7.1l3.6-15.4h17.4l-3.5,15.4h16.2l-2.6,11.4h-16.2l-4.5,19.5c-0.3,1.3-0.6,2.7-0.9,4.1c-0.3,1.4-0.4,2.5-0.4,3.5
			c0,1.9,0.5,3.3,1.6,4c1.1,0.8,2.7,1.1,5,1.1c0.9,0,2.1-0.2,3.5-0.5c1.5-0.3,2.6-0.7,3.5-1.1h1.4l-2.7,11.6c-2,0.5-4,0.9-6.2,1.1
			S958.1,562.8,955.1,562.8z"/>
	</g>
</g>
</svg>
