<?xml version="1.0" encoding="utf-8"?>
<!-- Generator: Adobe Illustrator 23.0.1, SVG Export Plug-In . SVG Version: 6.00 Build 0)  -->
<svg version="1.1" id="Ñëîé_1" xmlns="http://www.w3.org/2000/svg" xmlns:xlink="http://www.w3.org/1999/xlink" x="0px" y="0px"
	 viewBox="0 0 139 121.2" style="enable-background:new 0 0 139 121.2;" xml:space="preserve">
<style type="text/css">
	.st0{fill-rule:evenodd;clip-rule:evenodd;fill:#0761AF;}
</style>
<g>
	<path class="st0" d="M68.9,0c6.6,0,12.8,1.5,18.3,4.2c0.9,0.4,1.7,0.9,2.6,1.4l-3.9,3.5l-5.8-6l-9.8,8.7l-5.8-6.3l-18,16.4
		l11.6,12.8l-4.6,4L65,51.6l-4.6,4l16.4,18.3l9.8-9l8.4,9.6c-1.7,1.3-3.5,2.5-5.5,3.7c-6.1,3.5-13.1,5.5-20.6,5.5
		C45.8,83.7,27,64.9,27,41.8S45.9,0,68.9,0L68.9,0z"/>
	<polygon class="st0" points="61.3,39.2 71.3,30.2 80.2,40.2 70.3,49.2 	"/>
	<polygon class="st0" points="68.4,56.4 78.3,47.5 87.3,57.4 77.4,66.4 	"/>
	<polygon class="st0" points="54.2,22.2 64.1,13.2 73.1,23.2 63.2,32.2 	"/>
	<polygon class="st0" points="72.5,17.4 79.9,10.7 86.6,18.1 79.2,24.9 	"/>
	<polygon class="st0" points="85.7,48.2 93.2,41.5 99.9,48.9 92.5,55.7 	"/>
	<polygon class="st0" points="92.3,63.3 99.8,56.5 106.5,64 99,70.7 	"/>
	<polygon class="st0" points="95.3,28.7 100.3,24.2 104.8,29.2 99.8,33.7 	"/>
	<polygon class="st0" points="88.9,13.9 93.9,9.4 98.4,14.4 93.4,18.9 	"/>
	<polygon class="st0" points="101.7,43.5 106.6,39 111.1,44 106.1,48.5 	"/>
	<polygon class="st0" points="79.3,32.4 86.8,25.7 93.5,33.1 86.1,39.9 	"/>
</g>
<path class="st0" d="M63.9,92.2l-0.1,0.1l-0.1-0.1c-1.1-1-2.2-1.3-3.7-1.3c-3.3,0-5.5,2.3-5.5,5.9c0,0,0,16.5,0,16.9
	c0.3,0,3,0,3.3,0c0-0.4,0-16.9,0-16.9c0-2.4,1.6-2.6,2.2-2.6c0.4,0,1,0.1,1.4,0.5c0.5,0.5,0.7,1.2,0.7,2.1c0,0,0,16.5,0,16.9
	c0.3,0,3,0,3.3,0c0-0.4,0-16.9,0-16.9c0-2.4,1.6-2.6,2.2-2.6c0.4,0,1,0.1,1.4,0.5c0.5,0.5,0.7,1.2,0.7,2.1c0,0,0,16.5,0,16.9
	c0.3,0,3,0,3.3,0c0-0.4,0-16.9,0-16.9c0-1.9-0.6-3.4-1.6-4.5c-1-0.9-2.3-1.4-3.9-1.4C66.1,90.8,64.9,91.3,63.9,92.2z"/>
<path class="st0" d="M88.2,98.6c-1.1-1.2-2.9-2.2-5.4-2.2c-2.4,0-4.2,1-5.3,2.2c-1.7,1.9-2.1,4.5-2.1,6.6c0,2,0.3,4.7,2.1,6.6
	c1.1,1.2,2.9,2.2,5.3,2.2c2.5,0,4.3-1,5.4-2.2c1.7-1.9,2.1-4.5,2.1-6.6C90.2,103.2,89.9,100.5,88.2,98.6L88.2,98.6z M86.9,106
	c0,1.6,0,3.4-1.2,4.7c-0.5,0.5-1.4,1.1-2.9,1.1c-1.4,0-2.4-0.6-2.8-1.1c-1.2-1.3-1.2-3.1-1.2-4.7v-1.5c0-1.6,0-3.4,1.2-4.6
	c0.5-0.5,1.4-1.2,2.8-1.2c1.5,0,2.5,0.6,2.9,1.2c1.2,1.3,1.2,3,1.2,4.6V106z"/>
<path class="st0" d="M93,96.8h2.8v1.5c0.8-0.6,1.5-1,2.4-1.3c1-0.4,1.7-0.5,2.7-0.5c1.4,0,2.9,0.3,4.1,1.6c1.2,1.3,1.4,2.9,1.4,4.3
	v11.2h-3.1v-11.5c0-2.7-1.7-3.5-3.2-3.5c-1.4,0-2.9,0.6-4.1,1.7v13.2h-3V99.1V96.8z"/>
<path class="st0" d="M121.5,110.3c-0.6,0.3-1.2,0.5-2,0.8c-0.9,0.3-1.6,0.4-2.6,0.4c-1.6,0-3-0.5-3.8-1.4c-0.6-0.6-1.2-1.7-1.2-3.8
	v-0.4h10.4v-0.8c0-2.7-0.1-4.9-1.8-6.7c-1.1-1.2-2.8-2-4.9-2c-2.4,0-4.1,1-5.2,2.2c-1.7,2-1.9,4.6-1.9,6.3c0,1.9,0.3,4.7,2,6.6
	c1.1,1.3,3.1,2.4,5.9,2.4c1.3,0,2.6-0.1,4-0.7c0.7-0.3,1.5-0.7,2.1-1L121.5,110.3L121.5,110.3z M111.9,103.4c0-1.9,0.6-3,1.1-3.6
	c0.5-0.5,1.3-1.1,2.6-1.1c0.9,0,1.7,0.2,2.4,0.8c1.1,1.1,1.1,2.4,1.1,3.5v0.7H112v-0.3H111.9z"/>
<path class="st0" d="M139,96.8l-6.6,19.9c-0.2,0.9-0.9,2.3-1.6,3.1c-0.9,1-2,1.4-3.3,1.4c-0.9,0-1.8-0.2-2.7-0.7
	c-0.5-0.3-1.1-0.7-1.4-1.1l1.4-1.8c0.2,0.2,0.6,0.5,0.9,0.7c0.5,0.3,1.1,0.4,1.6,0.4c0.9,0,1.5-0.5,1.8-0.9s0.7-1.4,0.9-2.1l0.4-1.3
	l-7.1-17.6h3.3l4.2,10.6c0.4,1,0.9,2.6,1,3h0.1c0.5-2,0.8-2.7,1.2-4l3-9.6L139,96.8L139,96.8z"/>
<path class="st0" d="M9.3,112.7l0.1-0.1l0.1,0.1c1.1,0.9,2.2,1.3,3.7,1.3c3.3,0,5.5-2.4,5.5-5.9c0,0,0-16.6,0-16.9c-0.3,0-3,0-3.4,0
	c0,0.3,0,16.9,0,16.9c0,2.4-1.6,2.6-2.1,2.6c-0.4,0-1,0-1.4-0.5c-0.5-0.4-0.7-1.2-0.7-2.1c0,0,0-16.6,0-16.9c-0.3,0-3,0-3.4,0
	c0,0.3,0,16.9,0,16.9c0,2.4-1.6,2.6-2.2,2.6c-0.4,0-1,0-1.4-0.5c-0.5-0.4-0.7-1.2-0.7-2.1c0,0,0-16.6,0-16.9c-0.3,0-3,0-3.4,0
	c0,0.3,0,16.9,0,16.9c0,1.8,0.6,3.4,1.6,4.4S4,114,5.5,114C7.1,114,8.3,113.5,9.3,112.7z"/>
<path class="st0" d="M34.2,110.3c-0.5,0.2-1.2,0.5-1.9,0.8c-0.9,0.3-1.6,0.4-2.6,0.4c-1.6,0-3-0.5-3.8-1.4c-0.5-0.6-1.2-1.7-1.2-3.8
	v-0.4h10.4v-0.8c0-2.7-0.1-4.9-1.7-6.7c-1.1-1.2-2.8-2-5-2c-2.3,0-4,1-5.1,2.2c-1.8,2-1.9,4.6-1.9,6.3c0,1.9,0.2,4.7,2,6.6
	c1.2,1.3,3.1,2.4,5.9,2.4c1.3,0,2.6-0.2,4-0.7c0.7-0.2,1.5-0.7,2-1L34.2,110.3L34.2,110.3z M24.7,103.4c0-1.9,0.6-3,1.1-3.6
	c0.4-0.5,1.2-1.1,2.5-1.1c0.9,0,1.7,0.2,2.4,0.9c1.1,1,1.1,2.3,1.1,3.5v0.7h-7.1V103.4z"/>
<path class="st0" d="M49.4,98.2c-1.2-1.1-2.9-1.7-4.6-1.7c-0.8,0-1.6,0.1-2.2,0.2c-0.5,0.1-1.1,0.4-1.6,0.6v-6.6h-3v21.4
	c1.8,1.1,3.9,1.8,6.3,1.8c1.8,0,4.2-0.4,5.9-2.7c1.4-1.9,1.7-4.2,1.7-6.2C51.8,103.3,51.7,100.2,49.4,98.2L49.4,98.2z M44.2,98.7
	c1.2,0,2.5,0.4,3.2,1.2c1.1,1.2,1.1,2.9,1.1,4.4v1.4c0,2.8-0.5,4-0.9,4.6c-0.5,0.6-1.5,1.4-3.2,1.4c-0.6,0-1.4-0.2-2-0.3
	c-0.4-0.1-1-0.4-1.4-0.7v-11"/>
</svg>
